<?xml version="1.0" standalone="no"?>
<!DOCTYPE svg PUBLIC "-//W3C//DTD SVG 20010904//EN"
 "http://www.w3.org/TR/2001/REC-SVG-20010904/DTD/svg10.dtd">
<svg version="1.0" xmlns="http://www.w3.org/2000/svg"
 width="984.000000pt" height="984.000000pt" viewBox="0 0 984.000000 984.000000"
 preserveAspectRatio="xMidYMid meet">
<metadata>
Created by potrace 1.14, written by Peter Selinger 2001-2017
</metadata>
<g transform="translate(0.000000,984.000000) scale(0.100000,-0.100000)"
fill="#000000" stroke="none">
<path d="M4835 9815 c-38 -13 -70 -24 -70 -24 0 0 -13 -4 -28 -10 -16 -6 -32
-11 -37 -11 -7 0 -282 -95 -340 -117 -8 -4 -17 -7 -20 -8 -3 -1 -12 -4 -20 -8
-33 -12 -316 -112 -322 -113 -5 -1 -11 -3 -15 -4 -5 -1 -11 -2 -15 -1 -5 0 -8
-4 -8 -9 0 -6 -6 -10 -12 -9 -7 1 -24 -2 -38 -8 -14 -6 -72 -28 -130 -48 -58
-20 -114 -40 -125 -45 -11 -5 -47 -18 -80 -29 -33 -11 -130 -46 -215 -77 -85
-31 -161 -57 -167 -57 -7 0 -13 -4 -13 -9 0 -5 -3 -7 -7 -5 -5 3 -19 0 -33 -6
-14 -5 -29 -11 -35 -13 -5 -1 -48 -17 -95 -34 -47 -17 -89 -33 -95 -34 -5 -2
-17 -6 -25 -9 -8 -3 -73 -27 -145 -52 -71 -25 -146 -52 -165 -60 -19 -7 -96
-35 -170 -61 -74 -25 -155 -54 -180 -64 -25 -10 -48 -18 -52 -19 -11 -2 -37
-11 -77 -27 -18 -8 -42 -14 -52 -14 -11 0 -19 -4 -19 -10 0 -5 -7 -10 -15 -10
-9 0 -70 -21 -138 -46 -67 -25 -126 -47 -132 -48 -5 -2 -17 -5 -25 -9 -8 -3
-62 -21 -120 -42 -58 -20 -120 -42 -138 -50 -18 -8 -41 -15 -51 -15 -10 0 -21
-3 -25 -7 -4 -5 -11 -8 -14 -9 -4 0 -14 -4 -22 -7 -25 -10 -273 -99 -285 -102
-5 -1 -23 -8 -40 -14 -16 -7 -38 -14 -47 -16 -9 -2 -25 -8 -35 -13 -10 -5 -65
-26 -123 -46 -58 -19 -128 -44 -156 -55 -29 -11 -54 -17 -58 -14 -3 4 -6 1 -6
-5 0 -7 -9 -12 -20 -12 -11 0 -20 -4 -20 -10 0 -5 -6 -7 -13 -4 -8 3 -26 -7
-41 -22 -24 -25 -26 -33 -21 -77 3 -27 15 -66 27 -86 25 -42 97 -111 116 -111
6 0 12 -4 12 -10 0 -5 5 -10 11 -10 6 0 25 -6 42 -14 18 -8 79 -33 137 -56 58
-23 125 -50 150 -61 25 -10 185 -75 355 -145 416 -169 404 -164 452 -185 24
-11 50 -19 58 -19 8 0 15 -4 15 -10 0 -5 3 -9 8 -8 7 3 258 -95 297 -116 11
-5 25 -11 31 -12 11 -2 24 -7 116 -48 20 -9 38 -16 41 -16 2 0 22 -8 43 -17
22 -9 41 -17 44 -18 3 -1 16 -6 30 -12 14 -6 115 -47 225 -92 110 -44 238 -96
285 -116 46 -19 90 -35 97 -35 7 0 13 -4 13 -8 0 -5 6 -9 13 -9 10 -1 367
-144 432 -173 11 -5 61 -25 110 -46 50 -20 101 -41 115 -47 14 -5 30 -11 35
-13 6 -1 58 -23 118 -47 59 -25 107 -42 107 -39 0 4 4 2 8 -3 4 -6 102 -49
217 -95 116 -46 212 -86 215 -89 3 -3 12 -7 20 -9 19 -4 122 -44 135 -53 11
-7 69 -27 106 -35 139 -33 267 -38 349 -14 25 8 48 13 53 12 4 -1 7 3 7 8 0 6
6 10 13 10 8 0 51 16 97 36 46 20 88 37 94 39 6 1 34 12 61 25 28 12 56 23 63
23 6 0 12 5 12 10 0 6 3 7 7 4 3 -4 17 0 30 8 13 9 23 13 23 11 0 -3 45 15
100 39 55 24 100 42 100 39 0 -2 11 3 24 12 14 8 29 16 33 16 11 1 14 2 251
100 15 6 29 12 32 13 15 5 48 19 75 30 17 8 54 23 84 35 30 11 74 30 97 41 24
10 47 19 52 19 4 0 26 9 49 19 22 11 46 21 54 23 8 2 16 5 19 8 5 5 68 29 85
33 6 1 12 4 15 7 3 3 39 19 80 34 41 16 93 37 115 46 22 10 76 32 120 50 114
46 147 60 170 70 11 5 56 23 100 41 44 17 94 37 110 44 17 7 102 43 190 79 88
35 178 73 200 82 22 10 45 18 50 20 6 1 76 29 156 62 173 73 202 85 209 87 24
8 68 27 82 35 10 6 22 10 28 10 10 0 86 32 122 51 10 5 25 9 33 9 8 0 15 4 15
8 0 5 6 9 13 9 6 0 66 23 132 50 128 53 157 65 165 68 9 3 64 26 95 40 16 7
48 20 70 28 22 9 57 23 77 31 21 9 39 15 41 14 2 -2 11 3 20 11 10 7 17 11 17
7 0 -3 17 3 37 14 21 11 41 20 45 20 4 0 36 13 70 29 35 15 80 34 101 40 60
20 85 51 81 101 -2 23 -12 61 -23 84 -22 45 -93 126 -110 126 -6 0 -11 4 -11
8 0 5 -21 15 -47 24 -27 9 -133 46 -238 83 -104 36 -194 68 -200 69 -5 2 -21
7 -35 13 -14 5 -61 22 -105 37 -44 15 -87 30 -95 33 -8 3 -22 7 -30 9 -8 2
-23 7 -35 13 -11 5 -49 19 -85 32 -69 23 -295 103 -320 112 -23 9 -224 78
-235 81 -5 2 -17 6 -25 9 -8 3 -62 22 -120 42 -58 20 -114 40 -125 45 -11 4
-76 27 -145 50 -69 23 -134 45 -145 50 -11 4 -33 13 -50 18 -16 6 -39 14 -50
18 -11 4 -23 8 -27 9 -5 2 -9 3 -10 5 -2 1 -10 3 -18 5 -8 2 -60 20 -115 40
-55 20 -138 49 -185 65 -47 16 -137 47 -200 70 -63 23 -119 43 -125 44 -5 2
-17 6 -25 9 -41 15 -137 49 -150 52 -8 2 -16 4 -17 5 -2 2 -7 3 -12 4 -5 0
-13 4 -17 9 -4 4 -13 7 -20 7 -7 0 -25 5 -41 12 -15 6 -32 12 -38 14 -5 2 -73
25 -150 52 -77 28 -156 55 -175 62 -19 6 -42 14 -50 17 -129 47 -200 70 -200
67 0 -3 -12 2 -27 10 -16 8 -62 26 -103 40 -90 30 -329 114 -350 123 -8 3 -19
7 -25 8 -5 1 -32 10 -58 19 -58 20 -56 20 -142 -9z m95 -1216 c0 3 14 6 30 6
17 0 30 -2 30 -5 0 -3 26 -7 58 -8 77 -3 245 -32 297 -52 14 -5 25 -6 25 -3 0
4 5 2 12 -5 7 -7 18 -12 26 -12 8 0 51 -17 96 -39 179 -85 270 -190 265 -306
-5 -105 -84 -199 -234 -278 -70 -36 -209 -84 -267 -92 -15 -2 -36 -6 -47 -10
-21 -6 -53 -11 -146 -21 -75 -9 -315 -11 -315 -3 0 3 -13 4 -28 3 -30 -2 -149
17 -247 40 -99 22 -254 91 -325 143 -125 93 -168 213 -114 322 52 105 218 212
404 262 25 7 50 14 55 15 23 6 55 13 91 18 22 4 53 9 69 12 17 3 65 6 108 8
43 2 80 6 83 9 3 2 21 1 40 -3 18 -4 34 -5 34 -1z"/>
<path d="M297 7515 c-61 -16 -93 -38 -117 -78 -20 -32 -20 -68 -15 -2442 2
-1325 7 -2430 10 -2455 3 -25 11 -62 17 -83 13 -42 82 -127 104 -127 8 0 14
-4 14 -9 0 -5 8 -11 18 -14 9 -3 53 -26 97 -50 110 -60 206 -112 295 -160 41
-22 100 -53 130 -70 30 -16 78 -42 105 -57 65 -36 147 -80 215 -117 30 -17 91
-50 135 -73 126 -67 169 -91 183 -102 6 -6 12 -7 12 -2 0 5 4 5 8 -1 4 -5 23
-18 42 -29 125 -66 212 -112 260 -138 30 -17 69 -38 85 -47 17 -9 38 -22 48
-30 9 -8 17 -11 17 -6 0 4 6 3 13 -3 6 -5 37 -23 67 -40 109 -58 216 -116 275
-149 33 -18 85 -45 115 -60 30 -16 57 -30 60 -33 3 -3 23 -15 45 -26 22 -12
65 -35 95 -51 30 -17 96 -52 145 -78 50 -26 104 -56 120 -65 17 -10 59 -33 95
-52 70 -38 189 -102 285 -155 33 -18 85 -45 115 -60 30 -16 57 -30 60 -34 5
-5 59 -34 125 -67 17 -8 42 -24 58 -34 15 -11 27 -16 27 -13 0 3 12 -2 28 -13
15 -10 42 -25 60 -33 17 -8 32 -17 32 -21 0 -5 9 -8 20 -8 11 0 20 -3 20 -7 0
-5 10 -13 23 -19 38 -18 241 -126 252 -134 6 -4 60 -34 120 -65 61 -32 124
-67 140 -77 32 -19 64 -34 80 -38 6 -1 19 -7 30 -13 30 -16 125 -17 162 -2 17
7 40 26 49 41 18 26 18 146 19 2693 0 1466 -3 2689 -6 2716 -11 84 -26 128
-55 161 -21 23 -104 78 -104 68 0 -4 -6 -2 -12 3 -7 5 -34 17 -60 27 -27 10
-48 23 -48 28 0 6 -3 9 -6 6 -6 -7 -78 22 -249 97 -60 26 -103 44 -275 118
-96 41 -191 81 -210 90 -63 27 -95 41 -100 42 -3 1 -31 13 -64 28 -32 15 -60
27 -63 27 -2 0 -25 9 -51 21 -59 26 -73 33 -252 109 -80 34 -161 69 -180 78
-19 9 -38 16 -41 17 -3 0 -30 11 -60 24 -30 13 -73 32 -96 43 -24 10 -62 27
-85 37 -24 11 -104 45 -178 76 -74 32 -151 65 -170 73 -19 9 -37 16 -40 17 -9
3 -338 143 -385 165 -110 50 -240 103 -241 98 0 -2 -8 3 -17 11 -10 7 -17 10
-17 5 0 -5 -4 -4 -8 1 -4 6 -43 25 -87 44 -122 51 -147 62 -179 77 -16 8 -35
14 -43 14 -7 0 -13 5 -13 11 0 5 -4 8 -9 5 -4 -3 -17 1 -27 9 -10 8 -25 15
-31 15 -7 0 -40 13 -73 29 -33 16 -60 28 -60 26 0 -2 -22 7 -49 20 -27 14 -52
25 -56 25 -4 0 -36 14 -72 30 -35 17 -66 30 -69 30 -2 0 -23 9 -47 19 -23 11
-91 40 -152 66 -60 26 -135 58 -165 72 -30 14 -71 26 -91 28 -20 1 -41 5 -45
7 -5 3 -31 -1 -57 -7z m3233 -1819 c84 -15 232 -77 259 -110 7 -9 17 -16 22
-16 20 0 200 -172 212 -202 3 -10 10 -18 15 -18 5 0 15 -13 22 -30 7 -16 16
-30 20 -30 25 0 156 -309 174 -412 15 -82 18 -249 7 -310 -12 -62 -41 -158
-51 -168 -3 -3 -14 -23 -25 -45 -27 -53 -107 -131 -166 -160 -85 -44 -188 -59
-284 -42 -53 9 -80 14 -80 17 0 1 -8 3 -18 5 -24 4 -172 80 -187 95 -3 3 -22
18 -43 33 -72 54 -175 163 -224 239 -15 23 -31 45 -35 46 -5 2 -8 12 -8 23 0
10 -4 19 -8 19 -19 0 -113 231 -126 308 -3 17 -9 47 -12 65 -4 17 -7 49 -8 70
0 20 -3 37 -6 37 -3 0 -4 15 -3 32 1 18 2 33 3 33 0 0 3 25 5 55 4 67 19 132
40 183 8 20 16 40 16 44 3 18 81 120 110 143 17 14 36 30 43 35 10 10 60 35
81 41 93 30 165 35 255 20z m-1280 -962 c45 -10 39 -8 84 -23 93 -32 214 -111
303 -198 60 -58 133 -147 133 -161 0 -6 4 -12 8 -14 10 -4 61 -89 89 -148 43
-92 53 -118 78 -215 28 -104 38 -275 23 -375 -16 -106 -80 -233 -149 -300 -31
-29 -129 -94 -129 -85 0 2 -19 -3 -42 -11 -52 -18 -176 -21 -238 -5 -182 47
-372 183 -487 349 -18 26 -37 52 -42 58 -43 51 -124 233 -152 342 -71 277 -26
526 121 672 48 48 126 99 163 106 82 17 109 20 152 18 28 -2 66 -7 85 -10z
m-1215 -915 c28 -6 70 -21 95 -32 62 -29 170 -97 170 -108 0 -5 5 -9 10 -9 11
0 82 -69 133 -128 37 -44 117 -163 117 -176 0 -5 6 -17 14 -25 16 -19 75 -162
88 -211 5 -19 11 -43 13 -52 28 -103 38 -299 20 -383 -37 -176 -121 -305 -235
-362 -118 -59 -301 -49 -433 24 -87 49 -232 175 -292 254 -34 45 -105 161
-124 204 -41 88 -54 121 -49 128 1 1 -4 11 -10 23 -6 11 -13 32 -16 45 -11 54
-15 69 -19 77 -22 35 -26 333 -5 367 5 8 20 67 22 85 4 30 70 134 113 177 102
103 234 138 388 102z"/>
<path d="M9459 7519 c-7 -4 -16 -6 -20 -3 -6 3 -41 -9 -154 -57 -62 -26 -122
-51 -140 -59 -44 -20 -113 -49 -175 -75 -36 -15 -85 -36 -110 -47 -76 -33 -84
-36 -103 -42 -9 -3 -20 -5 -23 -5 -4 0 -10 -3 -13 -8 -3 -5 -51 -27 -106 -50
-55 -23 -118 -50 -140 -59 -22 -9 -42 -18 -45 -19 -8 -3 -48 -20 -147 -63 -51
-22 -93 -37 -93 -34 0 4 -4 2 -8 -4 -4 -6 -36 -22 -72 -36 -36 -14 -92 -38
-125 -54 -33 -15 -66 -27 -72 -27 -7 0 -13 -3 -13 -7 0 -4 -20 -13 -45 -20
-25 -7 -45 -17 -45 -21 0 -5 -6 -9 -13 -9 -11 0 -138 -52 -292 -119 -23 -10
-62 -27 -165 -71 -41 -17 -91 -39 -110 -48 -19 -9 -44 -17 -54 -19 -11 -2 -27
-10 -36 -18 -9 -8 -21 -15 -27 -15 -6 0 -37 -12 -69 -26 -72 -32 -107 -47
-116 -49 -5 -2 -10 -4 -13 -5 -3 -1 -8 -3 -12 -5 -8 -2 -49 -20 -148 -65 -27
-12 -54 -23 -60 -24 -5 -1 -30 -12 -55 -23 -25 -11 -148 -64 -275 -118 -126
-53 -248 -105 -270 -115 -22 -10 -69 -30 -105 -45 -36 -15 -85 -36 -110 -47
-25 -10 -54 -23 -65 -28 -11 -4 -41 -17 -67 -29 -26 -12 -50 -21 -53 -21 -2 0
-29 -11 -59 -25 -30 -14 -60 -25 -65 -25 -6 0 -11 -5 -11 -12 0 -6 -3 -9 -6
-6 -4 5 -114 -38 -209 -82 -11 -5 -45 -19 -75 -31 -88 -36 -142 -86 -156 -144
-2 -5 -7 -26 -13 -45 -8 -23 -11 -874 -11 -2747 0 -2281 2 -2719 14 -2746 19
-46 65 -67 141 -63 65 3 92 13 249 99 50 27 116 63 146 79 30 16 87 46 125 68
39 21 91 49 118 62 26 12 47 26 47 30 0 5 5 8 11 8 7 0 65 30 130 66 65 36
121 65 125 64 4 -1 10 2 13 7 7 9 5 8 146 83 55 29 114 61 130 70 75 42 146
81 220 120 44 23 100 54 125 68 42 24 118 65 220 119 25 13 72 39 105 56 33
18 89 48 125 67 36 19 67 37 70 40 3 3 28 16 55 29 28 14 52 27 55 30 3 4 24
15 48 25 23 11 42 23 42 28 0 4 9 8 19 8 11 0 22 4 25 9 3 4 32 21 63 37 32
16 60 31 63 34 3 3 28 16 55 30 28 14 52 28 55 31 3 4 21 14 40 22 19 9 67 33
105 55 39 21 106 58 150 82 44 23 93 50 110 60 16 9 55 30 85 46 30 16 58 33
61 37 3 5 10 9 15 9 9 0 55 23 114 57 19 11 55 31 80 43 25 13 47 25 50 28 3
3 28 17 55 31 79 40 205 109 268 145 32 19 61 34 64 34 3 0 28 13 54 30 27 16
49 27 49 24 0 -3 12 3 28 14 15 10 72 43 127 72 55 29 132 70 170 91 128 69
164 112 186 221 10 53 13 321 24 2278 3 547 7 1368 10 1823 4 600 2 835 -6
850 -18 34 -52 68 -79 79 -39 15 -118 26 -131 17z m-2456 -2248 c15 -6 27 -8
27 -5 0 4 6 1 13 -5 8 -6 17 -8 20 -4 4 3 7 0 7 -7 0 -7 3 -11 6 -7 10 9 83
-45 132 -97 42 -45 107 -166 116 -216 2 -14 8 -36 13 -50 5 -14 9 -46 8 -72 0
-27 3 -48 7 -48 4 0 6 -6 3 -12 -2 -7 -6 -51 -9 -98 -6 -97 -11 -123 -34 -200
-9 -30 -16 -57 -17 -60 -16 -81 -139 -300 -214 -384 -60 -66 -112 -116 -121
-116 -6 0 -10 -4 -10 -9 0 -16 -147 -102 -214 -127 -360 -130 -652 121 -640
552 5 202 78 426 190 585 19 27 34 51 34 54 0 3 8 13 18 23 9 10 33 36 53 58
59 65 177 164 194 164 3 0 24 12 48 27 23 14 44 26 47 26 3 0 16 3 29 8 13 5
31 11 40 12 9 1 22 6 29 11 7 4 16 6 18 3 3 -3 17 -2 32 3 36 10 140 5 175 -9z
m1507 -1103 c40 -9 132 -62 173 -101 59 -55 117 -153 133 -225 22 -98 25 -126
25 -207 0 -49 -2 -103 -5 -120 -2 -16 -7 -48 -10 -69 -5 -36 -19 -89 -33 -126
-3 -8 -7 -20 -8 -26 -5 -23 -59 -140 -77 -166 -10 -14 -18 -29 -18 -32 0 -7
-44 -77 -70 -111 -32 -43 -167 -172 -210 -202 -137 -93 -308 -139 -420 -111
-19 5 -43 11 -53 13 -28 6 -108 55 -140 84 -67 61 -137 192 -154 289 -9 50 -8
279 1 322 16 77 30 127 47 168 10 23 16 42 13 42 -3 0 2 10 10 22 9 12 16 30
16 40 0 10 5 18 10 18 6 0 10 6 10 13 0 8 27 55 60 105 80 121 208 250 295
298 83 46 115 62 115 58 0 -2 17 3 38 10 20 8 46 17 57 19 22 4 171 0 195 -5z"/>
</g>
</svg>
